<?xml version="1.0" encoding="iso-8859-1"?>
<!-- Generator: Adobe Illustrator 22.0.1, SVG Export Plug-In . SVG Version: 6.00 Build 0)  -->
<svg version="1.1" id="Capa_1" xmlns="http://www.w3.org/2000/svg" xmlns:xlink="http://www.w3.org/1999/xlink" x="0px" y="0px"
	 viewBox="-49 141 512 512" style="enable-background:new -49 141 512 512;" xml:space="preserve">
<path style="fill:#FFFFFF;" d="M207,653c-68.38,0-132.667-26.629-181.019-74.981C-22.371,529.667-49,465.38-49,397
	s26.629-132.667,74.981-181.019C74.333,167.629,138.62,141,207,141s132.667,26.629,181.019,74.981
	C436.371,264.333,463,328.62,463,397s-26.629,132.667-74.981,181.019C339.667,626.371,275.38,653,207,653z M207,150.827
	C71.26,150.827-39.173,261.26-39.173,397S71.26,643.173,207,643.173S453.173,532.74,453.173,397S342.74,150.827,207,150.827z"/>
<path style="fill:#FFFFFF;" d="M280.252,250.556l-38-0.057c-42.686,0-70.28,28.307-70.28,72.109v33.252h-38.209
	c-3.288,0-5.967,2.663-5.967,5.967v48.181c0,3.288,2.679,5.967,5.967,5.967h38.209v121.559c0,3.288,2.679,5.967,5.982,5.967h49.831
	c3.303,0,5.982-2.679,5.982-5.967V415.975h44.668c3.304,0,5.971-2.679,5.971-5.967l0.027-48.181c0-1.577-0.64-3.094-1.756-4.226
	c-1.116-1.116-2.633-1.741-4.226-1.741h-44.683v-28.188c0-13.545,3.231-20.423,20.869-20.423l25.601-0.015
	c3.304,0,5.967-2.678,5.967-5.967v-44.725C286.204,253.235,283.541,250.572,280.252,250.556L280.252,250.556z M280.252,250.556"/>
</svg>
