<?xml version="1.0" encoding="utf-8"?>
<!-- Generator: Adobe Illustrator 22.0.1, SVG Export Plug-In . SVG Version: 6.00 Build 0)  -->
<svg version="1.1" id="Слой_1" xmlns="http://www.w3.org/2000/svg" xmlns:xlink="http://www.w3.org/1999/xlink" x="0px" y="0px"
	 viewBox="0 0 196 42.4" style="enable-background:new 0 0 196 42.4;" xml:space="preserve">
<style type="text/css">
	.st0{fill:#FFFFFF;}
</style>
<g>
	<g>
		<path class="st0" d="M25.2,12.2c0.3,0,0.7-0.1,1.2-0.3c0.9-0.5,1.4-1.3,1.4-2.2c0-0.5-0.1-1-0.4-1.4c-0.6-0.7-1.3-1.1-2.1-1.1
			h-0.1c-0.4,0-0.7,0.1-1.1,0.3c-0.9,0.5-1.4,1.3-1.4,2.2c0,0.3,0.1,0.7,0.2,1.1C23.4,11.7,24.2,12.2,25.2,12.2z"/>
		<path class="st0" d="M18.5,12.6c0.3,0,0.7-0.1,1.2-0.3C20.6,11.7,21,11,21,10c0-0.5-0.1-1-0.4-1.4c-0.6-0.7-1.3-1.1-2.1-1.1h-0.1
			c-0.4,0-0.7,0.1-1.1,0.3c-0.9,0.5-1.4,1.3-1.4,2.2c0,0.3,0.1,0.7,0.2,1.1C16.6,12.1,17.4,12.6,18.5,12.6z"/>
		<path class="st0" d="M34.9,31.9c-0.1,0.3-0.1,0.8,0,1.2c0.4,1.1,1,1.7,2,1.9c0.6,0.1,1.1,0.1,1.6-0.1c0.9-0.4,1.5-1,1.6-1.8l0-0.1
			c0.1-0.4,0.1-0.8,0-1.2c-0.4-1.1-1-1.7-2-1.9c-0.3-0.1-0.7-0.1-1.2,0C35.8,30.2,35.1,30.9,34.9,31.9z"/>
		<path class="st0" d="M35.2,8.7c-0.1,0.3-0.1,0.8,0,1.2c0.4,1.1,1,1.7,2,1.9c0.6,0.1,1.1,0.1,1.6-0.1c0.9-0.4,1.5-1,1.6-1.8l0-0.1
			c0.1-0.4,0.1-0.8,0-1.2c-0.4-1.1-1-1.7-2-1.9c-0.3-0.1-0.7-0.1-1.2,0C36.2,6.9,35.4,7.6,35.2,8.7z"/>
		<path class="st0" d="M24.9,23.5c0.4,0,0.9-0.1,1.2-0.3c0.8-0.5,1.2-1.2,1.2-2v-0.2c0-0.3-0.1-0.6-0.2-0.9
			c-0.5-0.9-1.3-1.4-2.2-1.4c-0.4,0-0.8,0.1-1.2,0.3c-0.8,0.5-1.2,1.2-1.2,2v0.2c0,0.3,0.1,0.6,0.2,0.9C23.2,23.1,24,23.5,24.9,23.5
			z"/>
		<path class="st0" d="M34.8,20.3c-0.5-1-1.3-1.5-2.2-1.5c-0.2,0-0.4,0-0.7,0.1c-1.2,0.4-1.8,1.2-1.8,2.4v6.1
			c-2,2.1-4.5,3.2-7.3,3.2c-1.9,0-3.7-0.5-5.2-1.4c-1.7-1.1-2.9-2.5-3.6-4c0,0,0,0,0,0c-0.1-0.2-0.1-0.3-0.2-0.5c0,0,0-0.1-0.1-0.1
			c0-0.1-0.1-0.2-0.1-0.4c0-0.1,0-0.1-0.1-0.2c0,0,0,0,0,0c0-0.1-0.1-0.2-0.1-0.4c-0.2-0.7-0.3-1.5-0.3-2.3c0-0.1,0-0.1,0-0.2
			c0,0,0,0,0,0c0,0,0,0,0,0c0-0.1,0-0.2,0-0.4c0-0.5,0.1-0.9,0.1-1.3c0.3-1.8,1.1-3.4,2.4-4.8c0.4-0.6,0.5-1.2,0.3-1.9
			c-0.1-0.3-0.3-0.6-0.5-0.9c-0.8-0.7-1.6-0.9-2.5-0.7l-0.2,0.1c-0.2,0.1-0.5,0.2-0.7,0.5c-0.7,0.8-1.3,1.6-1.9,2.4
			c-0.2,0.3-0.3,0.6-0.5,1c-0.1,0.3-0.2,0.5-0.3,0.7c-0.7,1.7-1.1,3.4-1.1,5.4c0,2.1,0.4,4.1,1.3,5.9c1.1,2.3,2.9,4.3,5.3,6
			c0.9,0.6,1.8,1.1,2.7,1.4c1.7,0.6,3.1,0.9,4.1,0.9h2.3c0.8,0,2-0.2,3.6-0.7c0.8-0.3,1.7-0.7,2.6-1.2c0.8-0.5,1.8-1.2,3-2.2
			c1.1-1.2,1.7-1.9,1.9-2.3v-7.7C35,20.9,34.9,20.6,34.8,20.3z"/>
		<path class="st0" d="M16.9,41.7c6,1.4,12.1,0.2,16.9-2.8c1.3-0.8,1.5-2.5,0.4-3.6l0,0c-0.8-0.9-2.1-1-3.1-0.4
			c-3.8,2.4-8.7,3.3-13.5,2.1C9.2,34.8,3.9,26.4,5.6,18C7.4,9,16.5,3.2,25.7,5.1c2,0.4,3.8,1.2,5.4,2.2c1,0.6,2.3,0.4,3.1-0.4v0
			c1-1.1,0.7-2.8-0.5-3.5c-2.1-1.3-4.4-2.3-7-2.8C14.8-2.1,2.9,5.6,0.7,17.4C-1.3,28.4,5.9,39.1,16.9,41.7z"/>
	</g>
	<g>
		<path class="st0" d="M49.2,29.6c-2-2-3-4.5-3-7.4c0-3,1-5.5,3-7.4c2-2,4.6-3,7.7-3c3.7,0,7.1,1.8,8.9,4.7l-3.5,2
			c-1-1.8-3-2.9-5.4-2.9c-2,0-3.6,0.6-4.9,1.8c-1.2,1.2-1.8,2.8-1.8,4.8c0,1.9,0.6,3.5,1.8,4.7c1.2,1.2,2.9,1.8,4.9,1.8
			c2.4,0,4.4-1.1,5.4-2.8l3.5,2c-1.8,2.9-5.1,4.7-8.9,4.7C53.8,32.6,51.2,31.6,49.2,29.6z"/>
		<path class="st0" d="M71.1,20.3c0.7-1.8,2.5-2.8,4.5-2.8v4.1c-1.1-0.1-2.2,0.1-3.1,0.7c-0.9,0.6-1.4,1.6-1.4,3v6.9h-3.8V17.8h3.8
			V20.3z"/>
		<path class="st0" d="M88.4,17.8h3.8v14.4h-3.8v-1.7c-1.1,1.4-2.7,2.1-4.8,2.1c-2,0-3.6-0.7-5.1-2.2c-1.4-1.5-2.1-3.3-2.1-5.4
			s0.7-3.9,2.1-5.4c1.4-1.5,3.1-2.2,5.1-2.2c2.1,0,3.6,0.7,4.8,2.1V17.8z M84.3,29.1c1.2,0,2.1-0.4,2.9-1.1c0.8-0.8,1.2-1.8,1.2-2.9
			c0-1.2-0.4-2.2-1.2-2.9c-0.8-0.8-1.7-1.1-2.9-1.1c-1.2,0-2.1,0.4-2.9,1.1c-0.8,0.7-1.1,1.7-1.1,2.9c0,1.2,0.4,2.2,1.1,2.9
			C82.2,28.7,83.1,29.1,84.3,29.1z"/>
		<path class="st0" d="M102.6,15.2c-2.1-0.1-3.1,0.7-3.1,2.4v0.1h3.1v3.6h-3.1v10.8h-3.8V21.4h-2.1v-3.6h2.1v-0.1
			c0-4.1,2.3-6.3,6.9-6V15.2z"/>
		<path class="st0" d="M114.2,21.4h-3.3v6c0,1.6,1.1,1.6,3.3,1.5v3.4c-5.2,0.6-7.1-0.9-7.1-4.8v-6h-2.6v-3.6h2.6v-2.9l3.8-1.1v4h3.3
			V21.4z"/>
		<path class="st0" d="M134.5,17.8h2.5v13.8c0,2.1-0.7,3.8-2.2,4.9c-1.5,1.2-3.2,1.8-5.3,1.8c-3.3,0-5.8-1.2-7-3.5l2.2-1.2
			c0.8,1.6,2.4,2.4,4.8,2.4c3.1,0,4.9-1.7,4.9-4.4v-2c-1.3,1.9-3.1,2.9-5.5,2.9c-2.1,0-3.9-0.7-5.3-2.2c-1.4-1.5-2.2-3.2-2.2-5.3
			s0.7-3.9,2.2-5.3c1.4-1.5,3.2-2.2,5.3-2.2c2.4,0,4.3,0.9,5.5,2.8V17.8z M133,21.3c-1-1-2.2-1.5-3.7-1.5s-2.7,0.5-3.7,1.5
			c-1,1-1.5,2.2-1.5,3.6c0,1.5,0.5,2.7,1.5,3.6s2.2,1.5,3.7,1.5s2.7-0.5,3.7-1.5c1-1,1.5-2.2,1.5-3.6C134.5,23.5,134,22.3,133,21.3z
			"/>
		<path class="st0" d="M142,20.2c0.9-1.8,2.4-2.7,4.6-2.7v2.6c-1.3-0.1-2.3,0.3-3.2,1S142,23,142,24.6v7.6h-2.6V17.8h2.6V20.2z"/>
		<path class="st0" d="M155.2,32.6c-2.1,0-4-0.7-5.5-2.2c-1.5-1.5-2.2-3.2-2.2-5.4s0.7-3.9,2.2-5.4s3.4-2.2,5.5-2.2s4,0.7,5.5,2.2
			c1.5,1.5,2.3,3.2,2.3,5.4s-0.8,3.9-2.3,5.4C159.2,31.8,157.4,32.6,155.2,32.6z M158.9,28.7c1-1,1.5-2.2,1.5-3.6s-0.5-2.7-1.5-3.6
			c-1-1-2.2-1.5-3.7-1.5c-1.4,0-2.7,0.5-3.7,1.5c-1,1-1.5,2.2-1.5,3.6s0.5,2.7,1.5,3.6c1,1,2.2,1.5,3.7,1.5
			C156.7,30.1,157.9,29.6,158.9,28.7z"/>
		<path class="st0" d="M175.2,17.8h2.6v14.4h-2.6v-2.1c-1,1.6-2.6,2.4-4.8,2.4c-3.4,0-5.7-2.3-5.7-5.9v-8.8h2.6v8.7
			c0,2.3,1.4,3.7,3.6,3.7c2.6,0,4.3-1.5,4.3-4.7V17.8z"/>
		<path class="st0" d="M193.6,19.7c1.4,1.5,2.2,3.2,2.2,5.3c0,2.1-0.7,3.9-2.2,5.4c-1.4,1.5-3.2,2.2-5.3,2.2c-2.4,0-4.3-0.9-5.6-2.8
			v8.2h-2.6V17.8h2.6v2.5c1.3-1.9,3.1-2.8,5.6-2.8C190.4,17.5,192.2,18.2,193.6,19.7z M191.7,28.7c1-1,1.5-2.2,1.5-3.7
			s-0.5-2.7-1.5-3.6c-1-1-2.2-1.5-3.7-1.5c-1.5,0-2.7,0.5-3.7,1.5c-1,1-1.5,2.2-1.5,3.6s0.5,2.7,1.5,3.7c1,1,2.2,1.5,3.7,1.5
			C189.5,30.1,190.7,29.7,191.7,28.7z"/>
	</g>
</g>
</svg>
