<?xml version="1.0" encoding="utf-8"?>
<!-- Generator: Adobe Illustrator 22.0.1, SVG Export Plug-In . SVG Version: 6.00 Build 0)  -->
<svg version="1.1" id="phone" xmlns="http://www.w3.org/2000/svg" xmlns:xlink="http://www.w3.org/1999/xlink" x="0px" y="0px"
	 viewBox="0 0 40 40" style="enable-background:new 0 0 40 40;" xml:space="preserve">
<style type="text/css">
	.st0{fill:#FF4834;}
</style>
<path class="st0" d="M20,0C9,0,0,8.9,0,20c0,11,9,20,20,20s20-9,20-20C40,8.9,31,0,20,0z M29.6,26.5l-2.8,2.8
	c-0.1,0.1-0.3,0.3-0.5,0.4c-0.2,0.1-0.4,0.2-0.6,0.2c0,0-0.1,0-0.1,0c-0.1,0-0.2,0-0.3,0c-0.3,0-0.7,0-1.3-0.1
	c-0.6-0.1-1.3-0.3-2.2-0.7c-0.9-0.4-1.8-0.9-2.9-1.6c-1.1-0.7-2.3-1.7-3.5-2.9c-1-1-1.8-1.9-2.4-2.8c-0.6-0.9-1.2-1.7-1.6-2.4
	c-0.4-0.7-0.7-1.4-0.9-2c-0.2-0.6-0.3-1.1-0.4-1.6c-0.1-0.4-0.1-0.8-0.1-1c0-0.3,0-0.4,0-0.4c0-0.2,0.1-0.4,0.2-0.6
	c0.1-0.2,0.2-0.4,0.4-0.5l2.8-2.8c0.2-0.2,0.4-0.3,0.7-0.3c0.2,0,0.3,0.1,0.5,0.2c0.1,0.1,0.3,0.2,0.4,0.4l2.2,4.3
	c0.1,0.2,0.2,0.5,0.1,0.7c-0.1,0.3-0.2,0.5-0.4,0.7l-1,1c0,0-0.1,0.1-0.1,0.1c0,0.1,0,0.1,0,0.2c0.1,0.3,0.2,0.6,0.4,1
	c0.2,0.3,0.4,0.7,0.8,1.2c0.3,0.5,0.8,1,1.5,1.7c0.6,0.6,1.2,1.1,1.7,1.5c0.5,0.4,0.9,0.6,1.2,0.8c0.3,0.2,0.6,0.3,0.8,0.3l0.3,0.1
	c0,0,0.1,0,0.1,0s0.1,0,0.1-0.1l1.2-1.2c0.3-0.2,0.5-0.3,0.9-0.3c0.2,0,0.4,0,0.6,0.1h0l4.1,2.4c0.3,0.2,0.5,0.4,0.5,0.7
	C29.9,26,29.9,26.3,29.6,26.5z"/>
</svg>
