<?xml version="1.0" encoding="utf-8"?>
<!-- Generator: Adobe Illustrator 22.0.1, SVG Export Plug-In . SVG Version: 6.00 Build 0)  -->
<svg version="1.1" id="OBJECTS" xmlns="http://www.w3.org/2000/svg" xmlns:xlink="http://www.w3.org/1999/xlink" x="0px" y="0px"
	 viewBox="0 0 231.3 200.7" style="enable-background:new 0 0 231.3 200.7;" xml:space="preserve">
<style type="text/css">
	.st0{fill:#245A7E;}
	.st1{fill:#002C48;}
	.st2{fill:#FFFFFF;}
	.st3{fill:#12496A;}
	.st4{fill:#85E2EA;}
	.st5{fill:#EDEDED;}
	.st6{fill:#08395C;}
	.st7{clip-path:url(#XMLID_2_);}
	.st8{fill:#154969;}
</style>
<g id="XMLID_120_">
	<g id="XMLID_121_">
		<path id="XMLID_498_" class="st0" d="M65.3,134.7c-6.8,6.9-15.4,12.2-24.3,15.8c-0.9-2.5-1.5-5-1.9-7.6
			c8.8-2.8,17.1-7.3,24.3-13.3C63.9,131.5,64.7,132.8,65.3,134.7z"/>
		<g id="XMLID_122_">
			<path id="XMLID_497_" class="st1" d="M76.6,135.1c-1.3,1.4-2.8,2.7-4.6,3.7c-2.1,1.2-4.7,1.8-7,1.2c-2.1-0.5-4-1.9-5.2-3.7
				c-3.9-5.9-1.2-13.6,4.4-17.3c1.8-1.2,3.8-2.1,6-2.1c4.9-0.1,8.5,3.7,9.3,8.4C80.1,129.1,78.9,132.5,76.6,135.1z"/>
			<path id="XMLID_496_" class="st0" d="M71.5,122.8c-3.3,1.9-6.5,3.9-9.6,6.1c-0.1-1.4,0.3-2.9,1.2-4.1
				C64.8,122.3,68.9,121,71.5,122.8z"/>
			<path id="XMLID_495_" class="st0" d="M73.3,125.4c0.9,3.4-3.3,6.2-6.1,7.4c-0.4,0.2-0.8,0.3-1.2,0.4c-0.6,0-1.2-0.2-1.7-0.6
				c-0.4-0.2-0.7-0.5-1.1-0.8C66.5,129.4,69.8,127.3,73.3,125.4z"/>
		</g>
		<g id="XMLID_123_">
			<path id="XMLID_493_" class="st2" d="M24.9,143.5l5.8,16c4-1.1,7.8-2.6,11.3-4.7c0.1-0.1,0.3-0.2,0.4-0.3c0.4-0.2,0.9-0.6,1.5-1
				c3.1-2.1,8.4-6.2,7.2-9.9c-0.3-0.9-0.9-1.7-1.6-2.4c-4.2-4.1-9.2-2.2-12.8-1.2c-1.4,0.3-2.8,0.8-4.2,1.2
				c-0.8,0.2-1.7,0.5-2.5,0.8C28.3,142.5,26.5,143,24.9,143.5z"/>
			<path id="XMLID_492_" class="st1" d="M34.9,162.9c1-1.3,1.8-2.7,2-4.3c0.2-1.4-0.2-2.9-0.8-4.2c-1.5-3.9-4.1-7.3-7.5-9.7
				c-1.5-1.1-3.3-2-5.1-1.4c0.1,0,4.2,13.7,4.6,15C29.5,162.8,30.3,168.9,34.9,162.9z"/>
			<path id="XMLID_491_" class="st3" d="M30,141.9c2.2,1.8,5.5,2.3,8.1,3.5c2,1,4.1,3,4.7,5.3c0.4,1.6-0.1,2.8-0.7,4
				c0.1-0.1,0.3-0.2,0.4-0.3c0.4-0.2,0.9-0.6,1.5-1c0.5-2.2,0-5-0.9-6.5c-1.3-2-3.4-3.3-5.6-4.1c-1.6-0.6-3.4-0.9-4.9-1.7
				C31.7,141.4,30.9,141.7,30,141.9z"/>
		</g>
	</g>
	<g id="XMLID_124_">
		<path id="XMLID_488_" class="st0" d="M148.7,133c7.8,4.8,14.5,11.6,19.7,19.1c-2.1,1.4-4.3,2.5-6.7,3.4
			c-4.5-7.6-10.4-14.3-17.4-19.7C146.1,135,147.1,134,148.7,133z"/>
		<g id="XMLID_125_">
			<path id="XMLID_487_" class="st1" d="M146.7,122.5c1.6,0.9,3.1,2.1,4.4,3.5c1.5,1.7,2.6,3.9,2.6,6.2c0,2.1-0.9,4.1-2.4,5.6
				c-4.6,4.9-12.3,4-16.9-0.4c-1.5-1.4-2.7-3.1-3.2-5.1c-1.1-4.6,1.6-8.6,5.8-10.4C140.4,120.6,143.8,120.9,146.7,122.5z"/>
			<path id="XMLID_486_" class="st0" d="M136.4,129.8c2.4,2.7,5,5.2,7.7,7.6c-1.3,0.4-2.8,0.3-4-0.2
				C137.4,136.1,135.3,132.6,136.4,129.8z"/>
			<path id="XMLID_485_" class="st0" d="M138.4,127.6c2.9-1.6,6.4,1.8,8.1,4c0.2,0.3,0.5,0.7,0.6,1.1c0.1,0.5,0,1.1-0.2,1.7
				c-0.1,0.4-0.3,0.8-0.5,1.2C143.6,133,140.9,130.4,138.4,127.6z"/>
		</g>
		<g id="XMLID_126_">
			<path id="XMLID_483_" class="st2" d="M169.7,173.4l13.6-8.8c-1.9-3.4-4-6.7-6.8-9.5c-0.1-0.1-0.2-0.2-0.4-0.3
				c-0.3-0.3-0.7-0.7-1.2-1.2c-2.6-2.4-7.6-6.5-10.7-4.6c-0.8,0.5-1.4,1.2-1.9,2c-2.9,4.8-0.1,8.9,1.6,12.1c0.6,1.2,1.3,2.4,2,3.7
				c0.4,0.7,0.8,1.4,1.2,2.1C168.1,170.4,169,171.9,169.7,173.4z"/>
			<path id="XMLID_482_" class="st1" d="M185.6,159.9c-1.4-0.6-2.9-1.1-4.4-0.9c-1.4,0.2-2.6,0.8-3.7,1.6c-3.2,2.2-5.8,5.4-7.4,9
				c-0.7,1.6-1.1,3.5-0.3,5c-0.1-0.1,11.8-6.8,12.9-7.4C186.7,164.9,192.1,162.9,185.6,159.9z"/>
			<path id="XMLID_481_" class="st3" d="M167.2,168.9c1.2-2.4,0.9-5.5,1.6-8.2c0.5-2.1,1.9-4.5,3.9-5.4c1.4-0.7,2.6-0.5,3.8-0.2
				c-0.1-0.1-0.2-0.2-0.4-0.3c-0.3-0.3-0.7-0.7-1.2-1.2c-2.2,0-4.6,1-5.8,2.3c-1.6,1.6-2.3,3.9-2.6,6c-0.2,1.6-0.1,3.4-0.5,4.9
				C166.4,167.5,166.8,168.2,167.2,168.9z"/>
		</g>
	</g>
	<g id="XMLID_127_">
		<g id="XMLID_128_">
			<path id="XMLID_476_" class="st1" d="M58,77.2c1.5,0.8,3.2,1.7,4.2,3.2c0.1,0.1,0.1,0.2,0.2,0.4c-1.2-0.1-2.4,0-3.3,0.9
				c-0.9,0.9-1.1,2.4-0.2,3.5c1.9,2.2,5.1,1.6,6.2-0.8c0.1,0,0.1,0.1,0.2,0.1c1.4,0.8,2.2,2.1,2.1,3.8c0,1.7,2.5,1.4,2.6-0.2
				c0.1-3.1-2-5.2-4.6-6.3c-0.4-3.2-3.6-5.2-6.2-6.7C57.7,74.1,56.6,76.4,58,77.2z M61.4,82.8c0.6,0.1,1.6,0.1,1.5,0.7
				c-0.1,0.5-1.1,0.9-1.5,0.9c-0.6,0.1-1.4-0.3-1.3-0.9c0-0.4,0.5-0.7,1-0.7C61.2,82.8,61.3,82.8,61.4,82.8z"/>
			<g id="XMLID_129_">
				<path id="XMLID_473_" class="st0" d="M57.6,78.9c-7-8.3-13.8-16.7-20.4-25.3c0.8-0.5,1.6-0.9,2.3-1.4
					c7.7,6.1,14.9,13.2,21.8,20.2c0,2,0,4,0,6C60,78.7,58.8,78.8,57.6,78.9z"/>
				<path id="XMLID_470_" class="st4" d="M47.4,58.9c1.3,1.2,2.6,2.4,3.9,3.6c-1.7,0.7-3.3,1.8-4.6,3.2c-1.1-1.4-2.3-2.9-3.4-4.3
					C44.5,60.3,46,59.6,47.4,58.9z"/>
			</g>
		</g>
		<g id="XMLID_130_">
			<g id="XMLID_133_">
				<g id="XMLID_134_">
					<path id="XMLID_467_" class="st2" d="M57.7,122c0,0,54.6,25.1,68.6,25.8c14,0.7,31.6-31,31.6-31l-24.3-26.6l-7.4-8.1
						c-14.6,8-56.6,3.1-58.9,5c-1.3,1.1-4.4,12.9-6.7,22.4C59,116.4,57.7,122,57.7,122z"/>
					<path id="XMLID_466_" class="st5" d="M57.7,122c0,0,54.6,25.1,68.6,25.8c6.8,0.3,14.5-7,20.6-14.6c0.5-0.6,1-1.3,1.5-1.9
						c5.6-7.4,9.6-14.4,9.6-14.4l-24.3-26.6c0,3.4-0.4,6.7-1.5,10c-2.6,7.9-8.7,14.8-16.6,17.6c-3.1,1.1-6.3,1.5-9.6,1.8
						c-15.7,1.2-31.6-2.4-45.3-10c-0.1,0.5-0.3,1.1-0.4,1.6c-0.3,1.1-0.5,2.2-0.8,3.2C58.5,118.8,57.7,122,57.7,122z"/>
				</g>
				<path id="XMLID_464_" class="st3" d="M59.5,114.4c2.8,2,5.9,3.6,8.8,5.1c12.4,6.4,26,12.5,40.2,13.3c10.8,0.6,24.4-2.2,30-12.4
					c2.9,1.7,5.9,3.2,9.1,4.3c-0.5,2.3-0.8,4.5-0.8,6.9c0,0.6,0,1.2,0.1,1.7c0.5-0.6,1-1.3,1.5-1.9c0.2-2.4,0.6-4.8,1.4-6.9
					c0.2-0.5,0.1-1.1-0.5-1.4c-3.7-1.6-7.3-3.3-10.8-5.5c-0.6-0.4-1.4,0-1.7,0.6c-2.7,5.7-8.3,9.1-14.2,10.7
					c-12.6,3.5-26.3-0.3-38-5.1c-5.9-2.4-11.7-5.1-17.3-8c-2.5-1.3-4.9-2.8-7.1-4.4C60,112.3,59.7,113.4,59.5,114.4z"/>
			</g>
			<path id="XMLID_462_" class="st6" d="M166.1,102.9l-8.2,13.9c0,0-34.8-11.8-31.7-34.6l9.1-6.5L166.1,102.9z"/>
		</g>
	</g>
	<g id="XMLID_135_">
		<path id="XMLID_459_" class="st0" d="M133.6,139.7c7.7,8.5,13.4,19.2,17,30.1c-3,0.9-6.1,1.4-9.2,1.7c-2.7-10.7-7.5-20.9-14-29.9
			C129.7,141.2,131.3,140.3,133.6,139.7z"/>
		<g id="XMLID_136_">
			<path id="XMLID_458_" class="st1" d="M134.9,126.3c1.6,1.6,3,3.6,4,5.8c1.2,2.6,1.8,5.7,0.9,8.5c-0.8,2.5-2.6,4.6-4.8,5.9
				c-7.3,4.2-16.3,0.4-20.3-6.5c-1.3-2.2-2.2-4.7-2.1-7.3c0.3-5.9,5-9.8,10.6-10.5C128,121.8,131.9,123.4,134.9,126.3z"/>
			<path id="XMLID_457_" class="st0" d="M119.9,131.5c2,4.1,4.2,8,6.6,11.9c-1.7,0.1-3.5-0.6-4.8-1.7
				C118.8,139.4,117.5,134.4,119.9,131.5z"/>
			<path id="XMLID_456_" class="st0" d="M123,129.6c4.1-0.8,7.1,4.4,8.3,7.8c0.2,0.5,0.3,1,0.3,1.5c0,0.7-0.4,1.4-0.8,1.9
				c-0.3,0.4-0.7,0.9-1,1.2C127.4,137.9,125.1,133.8,123,129.6z"/>
		</g>
		<g id="XMLID_137_">
			<path id="XMLID_454_" class="st2" d="M144.6,195.8l19.5-5.8c-1.1-4.8-2.5-9.5-4.8-13.8c-0.1-0.2-0.2-0.4-0.3-0.5
				c-0.2-0.4-0.6-1.1-1.1-1.9c-2.2-3.8-6.8-10.5-11.2-9.3c-1.1,0.3-2.1,1-3,1.7c-5.2,4.8-3.3,10.8-2.4,15.2c0.3,1.6,0.7,3.4,1.1,5.1
				c0.2,1,0.5,2,0.7,3C143.7,191.7,144.2,193.8,144.6,195.8z"/>
			<path id="XMLID_453_" class="st1" d="M168.5,185.2c-1.4-1.3-3.1-2.3-4.9-2.7c-1.7-0.3-3.4,0.1-5.1,0.6c-4.7,1.5-8.9,4.4-12.1,8.2
				c-1.4,1.7-2.6,3.8-2.1,5.9c0-0.1,16.6-4.1,18.2-4.4C168,191.6,175.2,191.2,168.5,185.2z"/>
			<path id="XMLID_452_" class="st3" d="M143.2,189.6c2.3-2.4,3.1-6.4,4.8-9.3c1.3-2.4,3.9-4.7,6.6-5.2c1.9-0.3,3.3,0.3,4.7,1.2
				c-0.1-0.2-0.2-0.4-0.3-0.5c-0.2-0.4-0.6-1.1-1.1-1.9c-2.6-0.8-5.9-0.4-7.8,0.7c-2.5,1.4-4.1,3.8-5.2,6.4c-0.8,1.8-1.3,4-2.4,5.7
				C142.7,187.5,142.9,188.6,143.2,189.6z"/>
		</g>
	</g>
	<g id="XMLID_138_">
		<path id="XMLID_449_" class="st0" d="M79.4,136c-4.5,9.7-11.4,18.4-19.4,25.5c-1.9-2.3-3.4-4.6-4.9-7.2
			c8.1-6.2,15.1-14.1,20.3-22.9C76.6,133.2,78,134.3,79.4,136z"/>
		<g id="XMLID_139_">
			<path id="XMLID_448_" class="st1" d="M91.2,132.2c-0.8,2-2,3.8-3.5,5.5c-1.8,2-4.2,3.6-6.9,3.9c-2.4,0.3-4.8-0.5-6.8-2
				c-6.3-4.6-6.3-13.7-1.9-19.6c1.4-1.9,3.2-3.6,5.4-4.4c5.1-1.9,10.2,0.7,12.8,5.2C92.6,124.7,92.6,128.6,91.2,132.2z"/>
			<path id="XMLID_447_" class="st0" d="M81.3,121.3c-2.7,3.2-5.3,6.5-7.7,9.9c-0.7-1.4-0.8-3.2-0.3-4.7
				C74.2,123.3,78,120.4,81.3,121.3z"/>
			<path id="XMLID_446_" class="st0" d="M84.1,123.3c2.2,3.2-1.1,7.7-3.6,9.9c-0.3,0.3-0.7,0.6-1.1,0.8c-0.6,0.2-1.3,0.2-1.9,0.1
				c-0.5-0.1-1-0.2-1.4-0.4C78.6,130.1,81.2,126.6,84.1,123.3z"/>
		</g>
		<g id="XMLID_140_">
			<path id="XMLID_444_" class="st2" d="M40.5,160.3l12,14.5c3.7-2.7,7.2-5.6,10-9.1c0.1-0.2,0.2-0.3,0.4-0.5
				c0.3-0.4,0.7-0.9,1.2-1.6c2.4-3.3,6.4-9.6,3.8-13c-0.7-0.9-1.6-1.5-2.6-1.9c-5.9-2.7-10.3,1.2-13.8,3.5c-1.3,0.9-2.6,1.8-4,2.8
				c-0.8,0.6-1.5,1.1-2.3,1.7C43.7,158,42.1,159.2,40.5,160.3z"/>
			<path id="XMLID_443_" class="st1" d="M58.3,176.7c0.5-1.7,0.9-3.5,0.5-5.2c-0.4-1.5-1.3-2.9-2.4-4.1c-3-3.4-7-6-11.4-7.3
				c-1.9-0.6-4.2-0.8-5.8,0.4c0.1-0.1,9.5,12.7,10.4,13.9C52.6,178.6,55.7,184.6,58.3,176.7z"/>
			<path id="XMLID_442_" class="st3" d="M45.3,156.7c2.9,1.1,6.5,0.3,9.7,0.7c2.5,0.3,5.4,1.6,6.8,3.8c1,1.5,1,2.9,0.7,4.4
				c0.1-0.2,0.2-0.3,0.4-0.5c0.3-0.4,0.7-0.9,1.2-1.6c-0.3-2.5-1.8-5.2-3.4-6.4c-2.1-1.6-4.8-2.1-7.3-2.1c-1.8,0-3.9,0.4-5.7,0.1
				C46.9,155.6,46.1,156.2,45.3,156.7z"/>
		</g>
	</g>
</g>
<g id="XMLID_142_">
	<path id="XMLID_438_" class="st1" d="M174.3,37.4c-0.1,5.2-4.1,11.2-9.3,12.3c-6.1,1.3-12.8-5.1-14.4-10.6
		c-2.1-7,2.6-16.1,10.5-15.7C167.9,23.7,174.4,30.6,174.3,37.4z"/>
	<path id="XMLID_435_" class="st0" d="M156.3,29.8c-8.1-7.2-15.9-14.7-23.6-22.3c0.7-0.6,1.4-1.1,2.1-1.7c8.5,5,16.6,11.1,24.4,17
		c0.3,2,0.5,3.9,0.8,5.9C158.6,29.2,157.4,29.5,156.3,29.8z"/>
	<path id="XMLID_432_" class="st4" d="M143.4,11.3c1.4,1,2.9,2,4.3,3c-1.6,1-3.1,2.3-4.2,3.8c-1.3-1.3-2.7-2.5-4-3.8
		C140.7,13.1,142.1,12.2,143.4,11.3z"/>
	<g id="XMLID_143_">
		<path id="XMLID_431_" class="st0" d="M157.1,31.9c-0.1-0.1-0.1-0.2-0.2-0.2c0.7-0.2,1.4-0.4,2.2-0.4c4.1-0.2,7,2.6,8.3,6.3
			c0.8,2.2,0.8,4.8-0.3,6.6C163.4,40.3,160.5,35.9,157.1,31.9z"/>
		<path id="XMLID_430_" class="st0" d="M152.9,35.7c0.1-0.5,0.3-0.9,0.5-1.3c0.3-0.4,0.6-0.8,0.9-1.2c0,0.3,0.2,0.5,0.4,0.8
			c3.4,4,6.3,8.4,9.9,12.2c-0.5,0.2-1.2,0.4-1.9,0.4c-1.3,0.1-2.5-0.3-3.6-0.9C155.7,44.2,151.8,39.9,152.9,35.7z"/>
	</g>
	<path id="XMLID_426_" class="st4" d="M168,34.7c0.4,0.8,1.1,1.6,1.8,2.1c2-0.7,4.3-1.4,6.4-2c-0.1-1.9-1-3.8-2.3-5.3
		C172,30.9,169.8,33.2,168,34.7z"/>
	<path id="XMLID_423_" class="st0" d="M166.7,29.9c0.5,0.4,1.2,0.7,1.8,0.9c1.2-1,2.6-2.2,3.7-3.2c-0.7-1.3-1.7-2.3-3-2.9
		C168.3,26.2,167.5,28.4,166.7,29.9z"/>
</g>
<path id="XMLID_421_" class="st2" d="M135.4,58c-4.4,18.9,3.7,36.6,22,43.8c25.2,9.9,63,0.4,68.9-26.1c0.9-3.9,0.9-8.3-0.8-11.8
	c-0.7-1.4-1.6-2.7-2.8-3.7c-3.6-3-8.6-3.1-13.2-3.7c-4-0.5-8-1.5-11.2-3.8c-2-1.5-3.6-3.5-5.4-5.2c-7.9-7.8-19.4-14.5-30.6-15.4
	c-9-0.8-15.8,4.1-20.5,11C138.7,47.4,136.6,52.8,135.4,58z"/>
<g>
	<defs>
		<path id="XMLID_420_" d="M135.4,58c-4.4,18.9,3.7,36.6,22,43.8c25.2,9.9,63,0.4,68.9-26.1c0.9-3.9,0.9-8.3-0.8-11.8
			c-0.3,2.9-0.6,5.3-1,6.4c-2.3,6.7-6.9,12.5-12.9,16.3c-10.3,6.6-23.5,7.5-35.4,4.7c-12.9-3-25.3-10.6-31-22.6
			c-3.8-7.9-4.3-16.9-3.4-25.8C138.7,47.4,136.6,52.8,135.4,58z"/>
	</defs>
	<use xlink:href="#XMLID_420_"  style="overflow:visible;fill:#EDEDED;"/>
	<clipPath id="XMLID_2_">
		<use xlink:href="#XMLID_420_"  style="overflow:visible;"/>
	</clipPath>
	<g class="st7">
		<path class="st6" d="M169,93.4c4.2,2,8.5,3.3,12.9,4.1c4.4,0.8,8.9,1.2,13.4,1.1c2.2-0.2,4.5-0.2,6.7-0.6c1.1-0.2,2.2-0.2,3.3-0.5
			c1.1-0.2,2.2-0.4,3.3-0.6c0.6-0.1,1.1-0.2,1.7-0.3l1.6-0.4l3.3-0.8c2.2-0.6,4.4-1.4,6.6-1.9c-2,1.2-4,2.3-6.1,3.3l-3.2,1.3
			c-1.1,0.5-2.2,0.9-3.3,1.2c-4.5,1.5-9.2,2.1-13.9,2.4c-2.4-0.1-4.7,0-7.1-0.4c-0.6-0.1-1.2-0.1-1.8-0.2l-1.7-0.3l-1.7-0.4
			l-1.7-0.5C176.9,98.5,172.5,96.5,169,93.4z"/>
	</g>
</g>
<path id="XMLID_417_" class="st1" d="M224,75.5c-4.6,1-11.1-10.3-10.2-14.3c0.3-1.4,1.9-2.3,3.3-2.6c5.3-1.5,11-0.3,11.4,5.9
	c0.2,3.1-0.6,6.4-2.2,9.1C225.6,74.7,224.8,75.3,224,75.5z"/>
<g id="XMLID_146_">
	<path id="XMLID_416_" class="st1" d="M146.4,57.5c1.5,5-0.6,11.9-5.2,14.5c-5.5,3-13.8-1-16.9-5.8c-4-6.1-2.3-16.1,5.4-18.2
		C136.2,46.3,144.4,50.9,146.4,57.5z"/>
	<g id="XMLID_150_">
		<path id="XMLID_413_" class="st0" d="M126.9,55.6c-9.9-4.5-19.6-9.2-29.2-14.2c0.5-0.8,1-1.5,1.5-2.3c9.6,2.2,19.1,5.6,28.3,9
			c0.8,1.8,1.7,3.6,2.5,5.4C128.9,54.3,127.9,55,126.9,55.6z"/>
		<path id="XMLID_410_" class="st4" d="M109.1,41.8c1.7,0.5,3.4,1,5,1.6c-1.3,1.4-2.3,3.1-2.9,4.8c-1.6-0.8-3.3-1.6-4.9-2.4
			C107.1,44.3,108.1,43,109.1,41.8z"/>
	</g>
	<g id="XMLID_151_">
		<path id="XMLID_408_" class="st0" d="M128.3,57.4c-0.1-0.1-0.2-0.1-0.3-0.1c0.6-0.4,1.3-0.8,2-1.1c3.8-1.5,7.4,0.4,9.8,3.5
			c1.4,1.8,2.2,4.3,1.7,6.4C136.9,63.5,132.8,60.1,128.3,57.4z"/>
		<path id="XMLID_407_" class="st0" d="M125.4,62.2c0-0.5,0-0.9,0.1-1.4c0.1-0.5,0.3-1,0.5-1.4c0.1,0.2,0.3,0.5,0.6,0.6
			c4.5,2.8,8.6,6.1,13.1,8.7c-0.5,0.4-1,0.7-1.7,0.9c-1.2,0.4-2.5,0.4-3.7,0.3C130.6,69.5,125.6,66.6,125.4,62.2z"/>
	</g>
	<path id="XMLID_403_" class="st4" d="M139.5,56.7c0.6,0.6,1.5,1.2,2.3,1.5c1.7-1.2,3.7-2.6,5.5-3.8c-0.7-1.8-2.1-3.4-3.7-4.4
		C142.2,51.9,140.8,54.8,139.5,56.7z"/>
	<path id="XMLID_400_" class="st0" d="M136.9,52.5c0.6,0.3,1.3,0.4,2,0.4c0.8-1.3,1.8-2.8,2.6-4.1c-1-1-2.4-1.7-3.8-1.9
		C137.3,48.5,137.2,50.9,136.9,52.5z"/>
</g>
<g id="XMLID_154_">
	<path id="XMLID_396_" class="st8" d="M153.5,63.5c2.2,6.1,8.2,10.8,14.7,10.8c4.9,0,9.5-2.5,13.6-5.2c4.1-2.8,8-5.9,12.7-7.5
		c2.4-0.9,8.4-1.1,9.9-3.6c1.5-2.5-0.5-6.1-2.2-8.5c-0.3-0.4-0.6-0.8-0.9-1.1c-2.9-3.4-6.3-6.4-10.1-8.7c-5.4-3.3-11.8-5.2-18.1-4.1
		c-0.7,0.1-1.4,0.3-2,0.4c-5.6,1.4-10.9,4.5-14.4,9.1C152.7,50.3,151.3,57.4,153.5,63.5z"/>
	<path id="XMLID_395_" class="st6" d="M153.5,63.5c2.2,6.1,8.2,10.8,14.7,10.8c4.9,0,9.5-2.5,13.6-5.2c4.1-2.8,8-5.9,12.7-7.5
		c2.4-0.9,8.4-1.1,9.9-3.6c1.5-2.5-0.5-6.1-2.2-8.5c-5.4,0.7-12.2,5-15.2,7.3c-5.5,4.1-11.3,8.7-18.2,8.9c-3.4,0.1-6.9-1.1-8.9-3.8
		c-2.3-3.2-2-7.6-0.7-11.4c2-5.8,6-10.8,11.2-14.1c0.2-0.1,0.5-0.3,0.7-0.4c-5.6,1.4-10.9,4.5-14.4,9.1
		C152.7,50.3,151.3,57.4,153.5,63.5z"/>
	<path id="XMLID_157_" class="st4" d="M163.8,58.9c0,0.9,0.3,2,1.1,2.4c1,0.5,2.1-0.3,2.7-1.2c0.8-1,1.4-2.3,1.6-3.6
		c1.5,0.9,3.2,1.2,4.9,1.3c0.8,0.1,1.5,0.1,2.2-0.1c0.7-0.3,1.3-0.9,1.3-1.7c0-0.6-0.4-1.1-0.8-1.5c-1.4-1.5-3.1-2.7-5.1-3.4
		c-1.9-0.6-4.7-1-6,0.8C164.4,53.9,163.7,56.7,163.8,58.9z"/>
	<path id="XMLID_159_" class="st4" d="M187.9,49.9c0.1,0.1,0.1,0.2,0.2,0.3c0.2,0.1,0.4,0.1,0.7,0.1c0.9-0.2,1.5-1.1,1.8-2
		c0.3-0.7,0.4-1.5,0.5-2.2c0.7,0.5,1.4,0.8,2.2,1c0.5,0.1,1,0.2,1.4,0c0.5-0.2,0.8-0.6,0.8-1.1c0-0.5-0.4-0.8-0.8-1.1
		c-1.6-1.3-4.1-3.2-6.2-1.9C186.3,44.5,186.9,48,187.9,49.9z"/>
</g>
</svg>
