<svg id="Слой_1" xmlns="http://www.w3.org/2000/svg" viewBox="0 0 16 16"><style>.st0{fill:#ff4834}</style><path class="st0" d="M9.6 4.6c.1 0 .3 0 .5-.1.3-.2.5-.5.5-.8 0-.2 0-.4-.2-.5-.2-.3-.4-.5-.7-.5-.2 0-.3 0-.4.1-.4.2-.6.5-.6.9 0 .1 0 .3.1.4.1.3.5.5.8.5zm-2.5.2c.1 0 .3 0 .5-.1.3-.3.4-.6.4-.9 0-.2 0-.4-.2-.5-.1-.3-.4-.5-.7-.5-.2 0-.3 0-.4.1-.4.2-.6.5-.6.9 0 .1 0 .3.1.4.2.4.5.6.9.6zm6.2 7.3v.5c.2.4.4.6.8.7h.6c.3-.2.6-.4.6-.7v-.5c-.2-.4-.4-.6-.8-.7H14c-.4 0-.6.3-.7.7zm.1-8.8v.5c.2.4.4.6.8.7h.6c.3-.2.6-.4.6-.7v-.5c-.2-.4-.4-.6-.8-.7h-.5c-.3 0-.6.3-.7.7zM9.5 8.9c.2 0 .3 0 .5-.1.3-.2.5-.5.5-.8v-.1c0-.1 0-.2-.1-.3-.2-.3-.5-.5-.8-.5-.2 0-.3 0-.5.1-.3.2-.5.4-.5.7V8c0 .1 0 .2.1.3.2.4.5.6.8.6z"/><path class="st0" d="M13.3 7.7c-.2-.4-.5-.6-.8-.6h-.3c-.5.2-.7.5-.7.9v2.3c-.8.8-1.7 1.2-2.8 1.2-.7 0-1.4-.2-2-.5-.6-.4-1.1-.9-1.4-1.5 0-.1 0-.1-.1-.2v-.5C5.1 8.7 5 8.4 5 8v-.7c.2-.7.5-1.3 1-1.8.2-.2.2-.5.1-.7 0-.1-.1-.2-.2-.3-.3-.3-.6-.4-.9-.3h-.1c-.1 0-.2.1-.3.2-.2.3-.5.6-.7.9-.1.1-.1.2-.2.4 0 .1-.1.2-.1.3-.3.6-.4 1.3-.4 2 0 .8.2 1.6.5 2.2.4.9 1.1 1.6 2 2.3.3.2.7.4 1 .5.6.2 1.2.3 1.6.3h.9c.3 0 .8-.1 1.4-.3.3-.1.6-.3 1-.5.3-.2.7-.5 1.1-.8.4-.5.6-.7.7-.9V8c-.1-.1-.1-.2-.1-.3z"/><path class="st0" d="M6.5 15.8c2.3.5 4.6.1 6.4-1.1.5-.3.6-.9.2-1.4-.3-.3-.8-.4-1.2-.2-1.4.9-3.3 1.3-5.1.8-3.2-.8-5.2-4-4.5-7.2.7-3.4 4.1-5.6 7.6-4.9.8.2 1.4.5 2 .8.3.4.8.3 1.1 0 .4-.4.3-1.1-.2-1.3C12 .8 11.1.4 10.1.2c-4.5-1-9 1.9-9.9 6.4-.6 4.1 2.1 8.2 6.3 9.2z"/></svg>