<svg xmlns="http://www.w3.org/2000/svg" viewBox="-49 141 512 512"><path d="M207 653c-68.38 0-132.667-26.629-181.019-74.981C-22.371 529.667-49 465.38-49 397s26.629-132.667 74.981-181.019C74.333 167.629 138.62 141 207 141s132.667 26.629 181.019 74.981C436.371 264.333 463 328.62 463 397s-26.629 132.667-74.981 181.019C339.667 626.371 275.38 653 207 653zm0-502.173C71.26 150.827-39.173 261.26-39.173 397S71.26 643.173 207 643.173 453.173 532.74 453.173 397 342.74 150.827 207 150.827z" fill="#fff"/><path d="M280.252 250.556l-38-.057c-42.686 0-70.28 28.307-70.28 72.109v33.252h-38.209a5.966 5.966 0 0 0-5.967 5.967v48.181a5.977 5.977 0 0 0 5.967 5.967h38.209v121.559c0 3.288 2.679 5.967 5.982 5.967h49.831c3.303 0 5.982-2.679 5.982-5.967V415.975h44.668a5.97 5.97 0 0 0 5.971-5.967l.027-48.181c0-1.577-.64-3.094-1.756-4.226a5.965 5.965 0 0 0-4.226-1.741h-44.683v-28.188c0-13.545 3.231-20.423 20.869-20.423l25.601-.015a5.966 5.966 0 0 0 5.967-5.967v-44.725a5.979 5.979 0 0 0-5.953-5.986zm0 0" fill="#fff"/></svg>