<svg xmlns="http://www.w3.org/2000/svg" viewBox="0 0 512 512"><g fill="#fff"><path d="M256 512c-68.38 0-132.667-26.629-181.019-74.981S0 324.38 0 256 26.629 123.333 74.981 74.981 187.62 0 256 0s132.667 26.629 181.019 74.981S512 187.62 512 256s-26.629 132.667-74.981 181.019S324.38 512 256 512zm0-502.173C120.26 9.827 9.827 120.26 9.827 256S120.26 502.173 256 502.173 502.173 391.74 502.173 256 391.74 9.827 256 9.827z"/><path d="M298.458 142.778h-84.917c-39.076 0-70.764 31.688-70.764 70.764v84.917c0 39.076 31.688 70.764 70.764 70.764h84.917c39.076 0 70.764-31.688 70.764-70.764v-84.917c0-39.076-31.688-70.764-70.764-70.764zm49.535 155.68c0 27.315-22.22 49.535-49.535 49.535h-84.917c-27.315 0-49.535-22.22-49.535-49.535v-84.917c0-27.315 22.22-49.535 49.535-49.535h84.917c27.315 0 49.535 22.22 49.535 49.535v84.917z"/><path d="M256 199.389c-31.263 0-56.611 25.348-56.611 56.611s25.348 56.611 56.611 56.611 56.611-25.348 56.611-56.611-25.348-56.611-56.611-56.611zm0 91.993c-19.503 0-35.382-15.879-35.382-35.382 0-19.517 15.879-35.382 35.382-35.382s35.382 15.865 35.382 35.382c0 19.503-15.879 35.382-35.382 35.382z"/><circle cx="316.857" cy="195.143" r="7.543"/></g></svg>