<svg id="Слой_1" xmlns="http://www.w3.org/2000/svg" viewBox="0 0 196 42.4"><style>.st0{fill:#ff4834}</style><path class="st0" d="M25.2 12.2c.3 0 .7-.1 1.2-.3.9-.5 1.4-1.3 1.4-2.2 0-.5-.1-1-.4-1.4-.6-.7-1.3-1.1-2.1-1.1h-.1c-.4 0-.7.1-1.1.3-.9.5-1.4 1.3-1.4 2.2 0 .3.1.7.2 1.1.5.9 1.3 1.4 2.3 1.4zm-6.7.4c.3 0 .7-.1 1.2-.3.9-.6 1.3-1.3 1.3-2.3 0-.5-.1-1-.4-1.4-.6-.7-1.3-1.1-2.1-1.1h-.1c-.4 0-.7.1-1.1.3-.9.5-1.4 1.3-1.4 2.2 0 .3.1.7.2 1.1.5 1 1.3 1.5 2.4 1.5zm16.4 19.3c-.1.3-.1.8 0 1.2.4 1.1 1 1.7 2 1.9.6.1 1.1.1 1.6-.1.9-.4 1.5-1 1.6-1.8V33c.1-.4.1-.8 0-1.2-.4-1.1-1-1.7-2-1.9-.3-.1-.7-.1-1.2 0-1.1.3-1.8 1-2 2zm.3-23.2c-.1.3-.1.8 0 1.2.4 1.1 1 1.7 2 1.9.6.1 1.1.1 1.6-.1.9-.4 1.5-1 1.6-1.8v-.1c.1-.4.1-.8 0-1.2-.4-1.1-1-1.7-2-1.9-.3-.1-.7-.1-1.2 0-1 .2-1.8.9-2 2zM24.9 23.5c.4 0 .9-.1 1.2-.3.8-.5 1.2-1.2 1.2-2V21c0-.3-.1-.6-.2-.9-.5-.9-1.3-1.4-2.2-1.4-.4 0-.8.1-1.2.3-.8.5-1.2 1.2-1.2 2v.2c0 .3.1.6.2.9.5 1 1.3 1.4 2.2 1.4z"/><path class="st0" d="M34.8 20.3c-.5-1-1.3-1.5-2.2-1.5-.2 0-.4 0-.7.1-1.2.4-1.8 1.2-1.8 2.4v6.1c-2 2.1-4.5 3.2-7.3 3.2-1.9 0-3.7-.5-5.2-1.4-1.7-1.1-2.9-2.5-3.6-4-.1-.2-.1-.3-.2-.5 0 0 0-.1-.1-.1 0-.1-.1-.2-.1-.4 0-.1 0-.1-.1-.2 0-.1-.1-.2-.1-.4-.2-.7-.3-1.5-.3-2.3v-.6c0-.5.1-.9.1-1.3.3-1.8 1.1-3.4 2.4-4.8.4-.6.5-1.2.3-1.9-.1-.3-.3-.6-.5-.9-.8-.7-1.6-.9-2.5-.7l-.2.1c-.2.1-.5.2-.7.5-.7.8-1.3 1.6-1.9 2.4-.2.3-.3.6-.5 1-.1.3-.2.5-.3.7-.7 1.7-1.1 3.4-1.1 5.4 0 2.1.4 4.1 1.3 5.9 1.1 2.3 2.9 4.3 5.3 6 .9.6 1.8 1.1 2.7 1.4 1.7.6 3.1.9 4.1.9h2.3c.8 0 2-.2 3.6-.7.8-.3 1.7-.7 2.6-1.2.8-.5 1.8-1.2 3-2.2 1.1-1.2 1.7-1.9 1.9-2.3v-7.7c0-.4-.1-.7-.2-1z"/><path class="st0" d="M16.9 41.7c6 1.4 12.1.2 16.9-2.8 1.3-.8 1.5-2.5.4-3.6-.8-.9-2.1-1-3.1-.4-3.8 2.4-8.7 3.3-13.5 2.1-8.4-2.2-13.7-10.6-12-19C7.4 9 16.5 3.2 25.7 5.1c2 .4 3.8 1.2 5.4 2.2 1 .6 2.3.4 3.1-.4 1-1.1.7-2.8-.5-3.5-2.1-1.3-4.4-2.3-7-2.8-11.9-2.7-23.8 5-26 16.8-2 11 5.2 21.7 16.2 24.3zm32.3-12.1c-2-2-3-4.5-3-7.4 0-3 1-5.5 3-7.4 2-2 4.6-3 7.7-3 3.7 0 7.1 1.8 8.9 4.7l-3.5 2c-1-1.8-3-2.9-5.4-2.9-2 0-3.6.6-4.9 1.8-1.2 1.2-1.8 2.8-1.8 4.8 0 1.9.6 3.5 1.8 4.7s2.9 1.8 4.9 1.8c2.4 0 4.4-1.1 5.4-2.8l3.5 2c-1.8 2.9-5.1 4.7-8.9 4.7-3.1 0-5.7-1-7.7-3zm21.9-9.3c.7-1.8 2.5-2.8 4.5-2.8v4.1c-1.1-.1-2.2.1-3.1.7s-1.4 1.6-1.4 3v6.9h-3.8V17.8h3.8v2.5zm17.3-2.5h3.8v14.4h-3.8v-1.7c-1.1 1.4-2.7 2.1-4.8 2.1-2 0-3.6-.7-5.1-2.2-1.4-1.5-2.1-3.3-2.1-5.4s.7-3.9 2.1-5.4 3.1-2.2 5.1-2.2c2.1 0 3.6.7 4.8 2.1v-1.7zm-4.1 11.3c1.2 0 2.1-.4 2.9-1.1.8-.8 1.2-1.8 1.2-2.9 0-1.2-.4-2.2-1.2-2.9-.8-.8-1.7-1.1-2.9-1.1s-2.1.4-2.9 1.1-1.1 1.7-1.1 2.9.4 2.2 1.1 2.9c.8.7 1.7 1.1 2.9 1.1zm18.3-13.9c-2.1-.1-3.1.7-3.1 2.4v.1h3.1v3.6h-3.1v10.8h-3.8V21.4h-2.1v-3.6h2.1v-.1c0-4.1 2.3-6.3 6.9-6v3.5zm11.6 6.2h-3.3v6c0 1.6 1.1 1.6 3.3 1.5v3.4c-5.2.6-7.1-.9-7.1-4.8v-6h-2.6v-3.6h2.6V15l3.8-1.1v4h3.3v3.5zm20.3-3.6h2.5v13.8c0 2.1-.7 3.8-2.2 4.9-1.5 1.2-3.2 1.8-5.3 1.8-3.3 0-5.8-1.2-7-3.5l2.2-1.2c.8 1.6 2.4 2.4 4.8 2.4 3.1 0 4.9-1.7 4.9-4.4v-2c-1.3 1.9-3.1 2.9-5.5 2.9-2.1 0-3.9-.7-5.3-2.2s-2.2-3.2-2.2-5.3.7-3.9 2.2-5.3c1.4-1.5 3.2-2.2 5.3-2.2 2.4 0 4.3.9 5.5 2.8v-2.5h.1zm-1.5 3.5c-1-1-2.2-1.5-3.7-1.5s-2.7.5-3.7 1.5-1.5 2.2-1.5 3.6c0 1.5.5 2.7 1.5 3.6s2.2 1.5 3.7 1.5 2.7-.5 3.7-1.5 1.5-2.2 1.5-3.6-.5-2.6-1.5-3.6zm9-1.1c.9-1.8 2.4-2.7 4.6-2.7v2.6c-1.3-.1-2.3.3-3.2 1S142 23 142 24.6v7.6h-2.6V17.8h2.6v2.4zm13.2 12.4c-2.1 0-4-.7-5.5-2.2s-2.2-3.2-2.2-5.4.7-3.9 2.2-5.4 3.4-2.2 5.5-2.2 4 .7 5.5 2.2 2.3 3.2 2.3 5.4-.8 3.9-2.3 5.4c-1.5 1.4-3.3 2.2-5.5 2.2zm3.7-3.9c1-1 1.5-2.2 1.5-3.6s-.5-2.7-1.5-3.6c-1-1-2.2-1.5-3.7-1.5-1.4 0-2.7.5-3.7 1.5s-1.5 2.2-1.5 3.6.5 2.7 1.5 3.6c1 1 2.2 1.5 3.7 1.5 1.5-.1 2.7-.6 3.7-1.5zm16.3-10.9h2.6v14.4h-2.6v-2.1c-1 1.6-2.6 2.4-4.8 2.4-3.4 0-5.7-2.3-5.7-5.9v-8.8h2.6v8.7c0 2.3 1.4 3.7 3.6 3.7 2.6 0 4.3-1.5 4.3-4.7v-7.7zm18.4 1.9c1.4 1.5 2.2 3.2 2.2 5.3s-.7 3.9-2.2 5.4c-1.4 1.5-3.2 2.2-5.3 2.2-2.4 0-4.3-.9-5.6-2.8V38h-2.6V17.8h2.6v2.5c1.3-1.9 3.1-2.8 5.6-2.8 2.1 0 3.9.7 5.3 2.2zm-1.9 9c1-1 1.5-2.2 1.5-3.7s-.5-2.7-1.5-3.6c-1-1-2.2-1.5-3.7-1.5s-2.7.5-3.7 1.5-1.5 2.2-1.5 3.6.5 2.7 1.5 3.7 2.2 1.5 3.7 1.5c1.5-.1 2.7-.5 3.7-1.5z"/></svg>