<svg id="phone" xmlns="http://www.w3.org/2000/svg" viewBox="0 0 40 40"><style>.st0{fill:#ff4834}</style><path class="st0" d="M20 0C9 0 0 8.9 0 20c0 11 9 20 20 20s20-9 20-20C40 8.9 31 0 20 0zm9.6 26.5l-2.8 2.8c-.1.1-.3.3-.5.4-.2.1-.4.2-.6.2h-.4c-.3 0-.7 0-1.3-.1-.6-.1-1.3-.3-2.2-.7-.9-.4-1.8-.9-2.9-1.6-1.1-.7-2.3-1.7-3.5-2.9-1-1-1.8-1.9-2.4-2.8-.6-.9-1.2-1.7-1.6-2.4-.4-.7-.7-1.4-.9-2-.2-.6-.3-1.1-.4-1.6-.1-.4-.1-.8-.1-1v-.4c0-.2.1-.4.2-.6.1-.2.2-.4.4-.5l2.8-2.8c.2-.2.4-.3.7-.3.2 0 .3.1.5.2.1.1.3.2.4.4l2.2 4.3c.1.2.2.5.1.7-.1.3-.2.5-.4.7l-1 1-.1.1v.2c.1.3.2.6.4 1 .2.3.4.7.8 1.2.3.5.8 1 1.5 1.7.6.6 1.2 1.1 1.7 1.5.5.4.9.6 1.2.8.3.2.6.3.8.3l.3.1h.1s.1 0 .1-.1l1.2-1.2c.3-.2.5-.3.9-.3.2 0 .4 0 .6.1l4.1 2.4c.3.2.5.4.5.7-.1 0-.1.3-.4.5z"/></svg>