<svg xmlns="http://www.w3.org/2000/svg" viewBox="0 0 228.526 228.526" width="512" height="512"><path d="M189.565 134.629c-.183-.164 1.165-2.833 1.317-3.202 8.579-20.867 9.453-44.559 2.069-65.917-8.085-23.392-25.807-43.052-48.807-52.505-9.022-3.708-18.637-5.914-28.397-6.23-7.855-.254-15.527.77-23.12 2.726 10.186.352 20.11 2.001 29.604 5.83 9.763 3.939 18.569 9.816 25.993 17.271 17.24 17.311 24.655 43.392 18.168 67.057-1.004 3.665-2.359 7.211-4.005 10.636l-19.101-17.103-22.964-20.562-.594-.532 15.578-17.135-1.79-1.627c-.15-.136-.48-.574-.684-.621-.988.387-1.997.722-3.02 1.004a29.92 29.92 0 0 1-12.471.731c-7.332-1.13-14.043-5.063-18.754-10.773L82.339 61.549l-23.456 25.8-2.912 3.203a202093.678 202093.678 0 0 0 25.589 23.263c.215.195.248-.006.437-.213l1.797-1.977 11.6-12.76c.044-.049.852-.942.854-.938l.444.397 3.052 2.732 11.995 10.74 25.442 22.781 2.101 1.881c-9.469 5.954-20.294 9.201-31.408 10.019-6.053.445-12.218-.011-18.167-1.201-5.439-1.088-10.547-2.912-15.682-4.959-.349-.14-3.593-1.749-3.687-1.605l-13.432 15.37-13.73-11.191-37.8 46.377A1182.213 1182.213 0 0 1 0 195.776l6.201 5.109 25.647 20.904 17.305-21.233 14.523-17.818c.062-.076 2.213.999 2.438 1.097a88.37 88.37 0 0 0 3.831 1.566c22.574 8.613 48.377 7.651 70.455-2.021a95.177 95.177 0 0 0 15.462-8.581c2.505-1.709 4.949-3.528 7.269-5.482.556-.469 6.386-5.785 6.342-5.825l6.944 6.218 26.334 23.579 2.633 2.357 19.99-22.326 3.152-3.521-38.961-35.17z" fill="#FFF"/></svg>