<?xml version="1.0" encoding="utf-8"?>
<!-- Generator: Adobe Illustrator 22.0.1, SVG Export Plug-In . SVG Version: 6.00 Build 0)  -->
<svg version="1.1" id="Слой_1" xmlns="http://www.w3.org/2000/svg" xmlns:xlink="http://www.w3.org/1999/xlink" x="0px" y="0px"
	 viewBox="0 0 38 28" style="enable-background:new 0 0 38 28;" xml:space="preserve">
<path d="M37.5,12.7L26.2,0.6c-0.7-0.7-1.8-0.7-2.5,0c-0.7,0.7-0.7,1.9,0,2.7l8.3,8.9H1.8C0.8,12.1,0,13,0,14c0,1,0.8,1.9,1.8,1.9H32
	l-8.3,8.9c-0.7,0.7-0.7,1.9,0,2.7c0.3,0.4,0.8,0.6,1.2,0.6c0.5,0,0.9-0.2,1.2-0.6l11.3-12.1C38.2,14.6,38.2,13.4,37.5,12.7
	L37.5,12.7z M37.5,12.7"/>
</svg>
