<?xml version="1.0" encoding="utf-8"?>
<!-- Generator: Adobe Illustrator 22.0.1, SVG Export Plug-In . SVG Version: 6.00 Build 0)  -->
<svg version="1.1" id="Слой_1" xmlns="http://www.w3.org/2000/svg" xmlns:xlink="http://www.w3.org/1999/xlink" x="0px" y="0px"
	 viewBox="0 0 38 28" style="enable-background:new 0 0 38 28;" xml:space="preserve">
<path d="M0.5,12.7c-0.7,0.7-0.7,1.9,0,2.7l11.3,12.1c0.3,0.4,0.8,0.6,1.2,0.6c0.5,0,0.9-0.2,1.2-0.6c0.7-0.7,0.7-1.9,0-2.7L6,15.9
	h30.2c1,0,1.8-0.8,1.8-1.9c0-1-0.8-1.9-1.8-1.9H6l8.3-8.9c0.7-0.7,0.7-1.9,0-2.7c-0.7-0.7-1.8-0.7-2.5,0L0.5,12.7L0.5,12.7z
	 M0.5,12.7"/>
</svg>
