<svg xmlns="http://www.w3.org/2000/svg" viewBox="0 0 512 512"><path d="M256 512c-68.38 0-132.667-26.629-181.019-74.981S0 324.38 0 256 26.629 123.333 74.981 74.981 187.62 0 256 0s132.667 26.629 181.019 74.981S512 187.62 512 256s-26.629 132.667-74.981 181.019S324.38 512 256 512zm0-502.173C120.26 9.827 9.827 120.26 9.827 256S120.26 502.173 256 502.173 502.173 391.74 502.173 256 391.74 9.827 256 9.827z" fill="#fff"/><path d="M408.543 338.24a21.933 21.933 0 0 0-1.081-2.076c-5.525-9.946-16.09-22.159-31.671-36.636l-.326-.338-.17-.16-.168-.168h-.16c-7.074-6.746-11.557-11.279-13.434-13.594-3.429-4.421-4.202-8.904-2.325-13.434 1.33-3.429 6.299-10.661 14.925-21.722 4.531-5.853 8.128-10.554 10.771-14.09 19.13-25.428 27.418-41.676 24.874-48.75l-.984-1.651c-.667-.992-2.373-1.908-5.136-2.732-2.763-.834-6.301-.974-10.613-.417l-47.758.328c-.766-.267-1.877-.249-3.309.089-1.44.328-2.165.496-2.165.496l-.824.42-.656.496c-.557.328-1.163.903-1.829 1.737a11.397 11.397 0 0 0-1.648 2.902c-5.207 13.376-11.109 25.807-17.748 37.303-4.093 6.856-7.85 12.798-11.277 17.827-3.429 5.027-6.301 8.736-8.616 11.109-2.325 2.376-4.421 4.284-6.301 5.713-1.888 1.442-3.317 2.048-4.312 1.829-.995-.229-1.938-.448-2.821-.667-1.552-.992-2.793-2.345-3.727-4.063-.944-1.709-1.58-3.867-1.908-6.469-.328-2.595-.527-4.831-.588-6.708-.048-1.877-.02-4.541.089-7.96.109-3.429.17-5.754.17-6.965 0-4.205.079-8.766.239-13.683.168-4.92.308-8.814.417-11.687.109-2.872.168-5.912.168-9.122 0-3.2-.198-5.713-.585-7.543a25.526 25.526 0 0 0-1.74-5.306c-.776-1.709-1.908-3.04-3.399-3.973-1.491-.944-3.338-1.689-5.546-2.246-5.861-1.323-13.325-2.038-22.386-2.157-20.559-.219-33.767 1.114-39.631 3.986-2.325 1.211-4.421 2.872-6.299 4.968-1.987 2.435-2.267 3.765-.834 3.984 6.637.995 11.328 3.371 14.101 7.125l.992 1.997c.776 1.432 1.552 3.976 2.318 7.621.773 3.648 1.272 7.682 1.488 12.104.557 8.069.557 14.976 0 20.73-.544 5.742-1.071 10.224-1.57 13.424-.496 3.21-1.241 5.802-2.236 7.799-.992 1.989-1.659 3.2-1.997 3.648-.328.438-.605.715-.824.824-1.44.557-2.93.834-4.482.834-1.539 0-3.419-.773-5.635-2.325-2.206-1.549-4.5-3.676-6.876-6.39-2.373-2.702-5.057-6.487-8.049-11.356-2.981-4.861-6.07-10.603-9.28-17.242l-2.653-4.808c-1.661-3.091-3.925-7.593-6.797-13.515-2.872-5.912-5.416-11.625-7.621-17.161-.885-2.315-2.216-4.083-3.986-5.306l-.824-.496c-.557-.438-1.44-.906-2.653-1.412a17.694 17.694 0 0 0-3.816-1.074l-45.431.328c-4.64 0-7.792 1.053-9.45 3.149l-.667.995c-.328.557-.496 1.44-.496 2.653 0 1.224.328 2.712.995 4.482 6.637 15.581 13.841 30.615 21.641 45.092 7.792 14.49 14.558 26.146 20.302 34.988 5.754 8.845 11.605 17.191 17.578 25.031 5.973 7.85 9.926 12.88 11.854 15.095 1.938 2.216 3.46 3.864 4.561 4.968l4.144 3.984c2.653 2.653 6.548 5.833 11.697 9.529 5.136 3.706 10.832 7.354 17.072 10.951 6.25 3.587 13.513 6.517 21.811 8.784 8.288 2.267 16.357 3.18 24.207 2.732h19.069c3.864-.328 6.797-1.549 8.784-3.645l.656-.824c.445-.666.862-1.692 1.241-3.073.387-1.379.585-2.9.585-4.559-.109-4.752.249-9.033 1.073-12.849.824-3.806 1.768-6.678 2.824-8.616 1.053-1.938 2.234-3.567 3.566-4.889 1.32-1.33 2.267-2.127 2.821-2.404.547-.28.984-.468 1.323-.588 2.653-.883 5.772-.018 9.369 2.574 3.589 2.605 6.957 5.802 10.117 9.618 3.149 3.816 6.937 8.1 11.348 12.849 4.431 4.749 8.298 8.288 11.605 10.613l3.32 1.987c2.216 1.333 5.088 2.544 8.626 3.648 3.536 1.112 6.627 1.391 9.28.834l42.452-.666c4.192 0 7.461-.695 9.776-2.076 2.325-1.381 3.699-2.903 4.144-4.551.448-1.661.468-3.538.089-5.645-.399-2.092-.785-3.563-1.164-4.39z" fill="#fff"/></svg>